<svg width="51" height="57" viewBox="0 0 51 57" fill="none" xmlns="http://www.w3.org/2000/svg">
<path fill-rule="evenodd" clip-rule="evenodd" d="M31.3704 40.9424C31.0024 41.6271 30.459 42.1684 29.829 42.5624C28.899 43.1391 27.8004 43.4271 26.6184 43.5431V44.5931C26.6184 45.1451 26.1704 45.5931 25.6184 45.5931C25.0664 45.5931 24.6184 45.1451 24.6184 44.5931V43.5797C23.163 43.4684 21.9157 42.9957 20.985 42.2084C19.909 41.3071 19.303 39.9817 19.3097 38.5524C19.3097 38.0371 19.7277 37.6191 20.243 37.6191C20.7584 37.6191 21.1764 38.0371 21.1764 38.5524C21.183 39.4791 21.5264 40.2144 22.1904 40.7837C22.7417 41.2504 23.5597 41.5844 24.6184 41.6911V34.6304C24.5992 34.6255 24.5801 34.6207 24.5609 34.6159C24.5308 34.6083 24.5007 34.6008 24.4706 34.5933C24.3777 34.5701 24.2844 34.5468 24.1917 34.5224C23.155 34.2451 22.121 33.9257 21.225 33.3404C20.715 33.0057 20.2504 32.5731 19.909 32.0164C19.5177 31.3804 19.3077 30.5997 19.3097 29.7244C19.3104 28.6251 19.6997 27.3597 20.6837 26.3497C21.5537 25.4524 22.877 24.8231 24.6184 24.6971V23.7297C24.6184 23.1777 25.0664 22.7297 25.6184 22.7297C26.1704 22.7297 26.6184 23.1777 26.6184 23.7297V24.7517C27.5857 24.8624 28.4457 25.0911 29.179 25.4484C30.2284 25.9571 31.029 26.7357 31.4797 27.6844C31.781 28.3151 31.927 29.0111 31.927 29.7244C31.927 30.2397 31.509 30.6577 30.9937 30.6577C30.4784 30.6577 30.0604 30.2397 30.0604 29.7244C30.0604 29.2597 29.969 28.8517 29.7964 28.4891C29.6224 28.1264 29.3664 27.8044 28.999 27.5184C28.4704 27.1057 27.683 26.7771 26.6197 26.6271V33.2091L26.7076 33.2322C26.825 33.263 26.9423 33.2939 27.0597 33.3264C28.1084 33.6231 29.157 33.9897 30.0544 34.6484C30.5644 35.0244 31.021 35.5057 31.3504 36.1057C31.7284 36.7911 31.929 37.6157 31.9277 38.5524C31.9284 39.4504 31.7404 40.2597 31.3704 40.9424ZM21.5964 31.1804C21.8524 31.5291 22.2477 31.8237 22.7924 32.0811C23.3037 32.3264 23.9344 32.5204 24.6197 32.7024V26.5717C24.0817 26.6217 23.625 26.7277 23.245 26.8724C22.713 27.0757 22.3204 27.3477 22.019 27.6551C21.421 28.2637 21.177 29.0577 21.1777 29.7244C21.1824 30.4097 21.3424 30.8297 21.5964 31.1804ZM29.615 36.8397C29.343 36.4304 28.9464 36.1017 28.4077 35.8157C27.9064 35.5464 27.2897 35.3351 26.6197 35.1451V41.6604C27.1957 41.5917 27.7224 41.4797 28.1617 41.3117C28.923 41.0184 29.423 40.6177 29.7284 40.0564C29.9324 39.6777 30.0604 39.1984 30.061 38.5524C30.0584 37.7691 29.8837 37.2517 29.615 36.8397Z" fill="#0C8543"/>
<path d="M10.7037 28.601C10.197 28.381 9.60837 28.6137 9.38837 29.1204C9.11904 29.7417 8.88437 30.377 8.69104 31.0244C8.53304 31.5537 8.8337 32.111 9.36304 32.269C9.89237 32.427 10.4497 32.1264 10.6077 31.597C10.777 31.0284 10.983 30.4677 11.223 29.9157C11.443 29.4097 11.2104 28.821 10.7037 28.601Z" fill="#0C8543"/>
<path d="M11.289 25.7337C13.015 23.2624 15.2757 21.1511 17.751 19.5864C18.2177 19.2911 18.835 19.4304 19.131 19.8984C19.4257 20.3651 19.2857 20.9824 18.819 21.2771C16.5664 22.6991 14.489 24.6424 12.9297 26.8784C12.613 27.3317 11.9904 27.4424 11.537 27.1264C11.0837 26.8097 10.973 26.1871 11.289 25.7337Z" fill="#0C8543"/>
<path fill-rule="evenodd" clip-rule="evenodd" d="M49.6191 35.9277C49.6191 38.697 49.1084 41.767 48.2817 43.697C49.9117 45.0317 50.9524 47.0557 50.9524 49.321C50.9524 53.3377 47.6891 56.593 43.6637 56.593C41.3624 56.593 39.3131 55.525 37.9771 53.8624C34.3697 55.5944 30.1411 56.593 25.6191 56.593C21.097 56.593 16.8684 55.5944 13.2604 53.8624C11.9244 55.525 9.87505 56.593 7.57305 56.593C3.54838 56.593 0.285717 53.3377 0.285717 49.321C0.285717 47.0544 1.32638 45.0304 2.95638 43.6957C2.13038 41.7677 1.61838 38.6957 1.61905 35.9263C1.62172 25.3797 10.6571 15.487 19.8031 12.317C19.7939 12.2911 19.7843 12.2652 19.7748 12.2394C19.7449 12.1582 19.7149 12.0769 19.6957 11.993L17.5444 2.52702C17.2897 1.40969 17.7557 0.714356 18.6244 0.714356C18.8684 0.714356 19.1431 0.768356 19.4424 0.88369L23.1311 2.30302C23.8151 2.56636 24.7177 2.69769 25.6197 2.69769C26.5217 2.69769 27.4244 2.56636 28.1084 2.30302L31.7971 0.88369C32.097 0.768356 32.3717 0.714356 32.6151 0.714356C33.4837 0.713689 33.9497 1.40969 33.695 2.52702L31.5437 11.993C31.5236 12.0807 31.4923 12.1655 31.4609 12.2503C31.4527 12.2725 31.4444 12.2948 31.4364 12.317C40.5817 15.487 49.6191 25.3797 49.6191 35.9277ZM22.9284 11.181L23.0271 11.2597H28.2111L28.3097 11.181L29.6504 5.28036L29.305 5.41302C27.9777 5.92369 26.5677 6.03036 25.6191 6.03036C24.6704 6.03036 23.2604 5.92369 21.9351 5.41369L21.5877 5.28036L22.9284 11.181ZM7.57238 53.2604C8.77772 53.2604 9.90305 52.719 10.6617 51.775C10.8397 51.5537 11.0437 51.3624 11.2617 51.1984C10.4231 50.6157 9.58705 49.949 8.77305 49.2057C7.54038 48.075 6.47972 46.881 5.61972 45.6824C5.45972 45.8977 5.28105 46.1003 5.06705 46.2764C4.14638 47.0297 3.61838 48.1403 3.61838 49.3217C3.61838 51.4937 5.39172 53.2604 7.57238 53.2604ZM14.2604 50.687C14.4097 50.7337 14.5577 50.7884 14.7024 50.8577C17.9771 52.429 21.7517 53.2597 25.6177 53.2597C26.3991 53.2597 27.1737 53.217 27.9437 53.1497L27.7531 51.7837C27.7157 51.5103 27.9064 51.2577 28.1797 51.219C28.4531 51.1817 28.7057 51.3717 28.7444 51.6457L28.9397 53.045C29.6804 52.9524 30.4144 52.8324 31.1357 52.679L30.7784 50.7284C30.729 50.457 30.909 50.1963 31.181 50.1464C31.4524 50.097 31.7131 50.277 31.7624 50.549L32.1097 52.4464C32.8597 52.255 33.5951 52.033 34.3131 51.7757L33.6057 49.855C33.5104 49.5957 33.6431 49.309 33.9024 49.213C34.1617 49.1177 34.4484 49.2503 34.5444 49.5097L35.2464 51.415C35.3251 51.3856 35.4044 51.354 35.4842 51.3221L35.5104 51.3117C35.7984 51.1903 36.0851 51.0644 36.3664 50.9317C36.6451 50.7963 36.9264 50.651 37.2124 50.4903L35.6477 47.921C35.5037 47.6857 35.5784 47.3784 35.8144 47.2344C36.0504 47.0904 36.3577 47.165 36.5017 47.401L38.0684 49.973C38.7091 49.5637 39.3571 49.0937 39.9991 48.5704L37.7357 45.5404C37.5704 45.3197 37.6157 45.0064 37.8364 44.841C38.0577 44.6757 38.3711 44.721 38.5364 44.9417L40.7611 47.9204C40.7924 47.8922 40.8241 47.865 40.8557 47.8378C40.8966 47.8027 40.9375 47.7676 40.9777 47.7304C43.2257 45.6777 44.8224 43.3764 45.529 41.4964C45.9857 39.9804 46.2857 37.8503 46.2857 35.9277C46.2857 30.901 43.7351 25.523 39.2884 21.1717C35.1397 17.1137 29.9024 14.593 25.6191 14.593C21.3357 14.593 16.0991 17.1137 11.951 21.171C7.50438 25.5224 4.95372 30.9004 4.95238 35.927C4.95172 38.2597 5.39172 40.915 6.02038 42.3837C6.05605 42.4679 6.08209 42.5538 6.10815 42.6397C6.11571 42.6646 6.12326 42.6895 6.13105 42.7143C6.97572 44.321 8.34172 46.1023 10.1244 47.7297C11.4857 48.9777 12.9131 49.9724 14.2604 50.687ZM40.5751 51.7743C41.3337 52.7183 42.4591 53.2597 43.6637 53.2597C45.8451 53.2597 47.6191 51.493 47.6191 49.321C47.6191 48.1397 47.0911 47.0303 46.1704 46.2757C45.9237 46.0737 45.7204 45.8384 45.5457 45.5857C44.6744 46.8164 43.5931 48.0437 42.3277 49.2043C41.5351 49.9283 40.7224 50.5784 39.9057 51.1497C40.1511 51.3244 40.3791 51.5304 40.5751 51.7743Z" fill="#0C8543"/>
</svg>
