<svg width="60" height="51" viewBox="0 0 60 51" fill="none" xmlns="http://www.w3.org/2000/svg">
<path fill-rule="evenodd" clip-rule="evenodd" d="M56.3415 0.143066H2.92683C1.31707 0.143066 0 1.34307 0 2.80973V38.1431C0 39.6097 1.31707 40.8097 2.92683 40.8097H27.9366L26.0261 45.3931L26.0268 45.3904C25.931 45.6224 25.8622 45.8844 25.8615 46.1871C25.8615 46.4224 25.9061 46.6817 26.0195 46.9397C26.1849 47.3277 26.5288 47.6877 26.9217 47.8911C27.3146 48.0997 27.7207 48.1677 28.0676 48.1677C28.2234 48.1677 28.3749 48.1537 28.5212 48.1297L28.5198 48.1304L30.9198 47.7384L32.4278 49.4824L32.4285 49.4831C32.6012 49.6817 32.8215 49.8757 33.1185 50.0344C33.4127 50.1911 33.7976 50.3071 34.2161 50.3064C34.7437 50.3124 35.2705 50.1077 35.6122 49.8324C35.9627 49.5564 36.1617 49.2391 36.2868 48.9431V48.9424L37.8849 45.1084L39.4829 48.9424V48.9431C39.6073 49.2391 39.8078 49.5564 40.1576 49.8324C40.4993 50.1077 41.0268 50.3124 41.5537 50.3064C41.9722 50.3071 42.3563 50.1911 42.6512 50.0344C42.9483 49.8757 43.1693 49.6817 43.3412 49.4831L43.3419 49.4824L44.85 47.7384L47.25 48.1304L47.2485 48.1297C47.3941 48.1537 47.5456 48.1677 47.7022 48.1677C47.9349 48.1677 48.1895 48.1377 48.4537 48.0557C48.8473 47.9371 49.2622 47.6751 49.53 47.3137C49.8029 46.9544 49.9112 46.5377 49.9083 46.1877C49.9076 45.8857 49.8388 45.6231 49.7429 45.3924L47.8332 40.8104H56.3415C57.9512 40.8104 59.2683 39.6104 59.2683 38.1437V2.8104C59.2683 1.34307 57.9512 0.143066 56.3415 0.143066ZM51.7178 37.4764L48.791 34.8097H51.9066L54.8341 37.4764H51.7178ZM37.6829 37.4764C33.8502 37.4764 30.7317 34.6351 30.7317 31.1431C30.7317 27.6511 33.8502 24.8097 37.6829 24.8097C41.5156 24.8097 44.6341 27.6511 44.6341 31.1431C44.6341 34.6351 41.5156 37.4764 37.6829 37.4764ZM37.6829 21.4764C31.8212 21.4764 27.0732 25.8044 27.0732 31.1431C27.0732 31.7124 27.1376 32.2677 27.2415 32.8097H8.78049V8.14307H50.4878V32.8097H48.1244C48.2283 32.2677 48.2927 31.7124 48.2927 31.1431C48.2927 25.8044 43.5446 21.4764 37.6829 21.4764ZM52.6829 34.1024V31.0964L55.6098 33.7631V36.7684L52.6829 34.1024ZM52.6829 29.6831V26.8564L55.6098 29.5237V32.3497L52.6829 29.6831ZM3.65854 37.4764V3.4764H55.6098V28.1091L52.6829 25.4417V6.80973C52.6829 6.44307 52.3537 6.14307 51.9512 6.14307H7.31707C6.91463 6.14307 6.58537 6.44307 6.58537 6.80973V34.1431C6.58537 34.5097 6.91463 34.8097 7.31707 34.8097H27.8678C28.2615 35.6844 28.7905 36.4931 29.4337 37.2164L29.3254 37.4764H3.65854ZM33.7537 45.6311L33.5656 45.4131C33.2188 45.0197 32.8346 44.7911 32.438 44.6237C32.0385 44.4617 31.6178 44.3617 31.1239 44.3591C30.9702 44.3597 30.8034 44.3704 30.6227 44.4011L30.6329 44.3991L30.3329 44.4477L32.3905 39.5131C33.4376 40.0637 34.5951 40.4544 35.8288 40.6531L33.7537 45.6311ZM45.1456 44.4011C44.9649 44.3704 44.798 44.3597 44.6444 44.3597C44.1505 44.3624 43.7298 44.4617 43.3302 44.6237C42.9337 44.7911 42.5502 45.0197 42.2027 45.4131L42.0146 45.6311L39.9139 40.5911C41.1366 40.3524 42.2759 39.9171 43.3024 39.3311L45.4346 44.4471L45.1354 44.3984L45.1456 44.4011ZM46.1993 36.8911C46.6815 36.2991 47.0971 35.6611 47.4219 34.9764L50.1658 37.4764H46.4429L46.1993 36.8911ZM16.0976 13.8097H36.5854C37.192 13.8097 37.6829 14.2577 37.6829 14.8097C37.6829 15.3617 37.192 15.8097 36.5854 15.8097H16.0976C15.491 15.8097 15 15.3617 15 14.8097C15 14.2577 15.491 13.8097 16.0976 13.8097ZM16.0976 20.4763H24.1463C24.7529 20.4763 25.2439 20.9243 25.2439 21.4763C25.2439 22.0283 24.7529 22.4763 24.1463 22.4763H16.0976C15.491 22.4763 15 22.0283 15 21.4763C15 20.9243 15.491 20.4763 16.0976 20.4763ZM33.6585 31.143C33.6585 29.1184 35.4593 27.4764 37.6829 27.4764C39.9066 27.4764 41.7073 29.1184 41.7073 31.143C41.7073 33.1677 39.9066 34.8097 37.6829 34.8097C35.4593 34.8097 33.6585 33.1677 33.6585 31.143ZM35.8537 31.143C35.8537 32.0624 36.6746 32.8097 37.6829 32.8097C38.6912 32.8097 39.5122 32.0624 39.5122 31.143C39.5122 30.2237 38.6912 29.4764 37.6829 29.4764C36.6746 29.4764 35.8537 30.2237 35.8537 31.143Z" fill="#0C8543"/>
</svg>
