<svg width="60" height="46" viewBox="0 0 60 46" fill="none" xmlns="http://www.w3.org/2000/svg">
<path d="M20.6667 16.381H14C13.448 16.381 13 15.933 13 15.381C13 14.829 13.448 14.381 14 14.381H20.6667C21.2187 14.381 21.6667 14.829 21.6667 15.381C21.6667 15.933 21.2187 16.381 20.6667 16.381Z" fill="#0C8543"/>
<path d="M39.3333 16.381H46C46.552 16.381 47 15.933 47 15.381C47 14.829 46.552 14.381 46 14.381H39.3333C38.7813 14.381 38.3333 14.829 38.3333 15.381C38.3333 15.933 38.7813 16.381 39.3333 16.381Z" fill="#0C8543"/>
<path d="M33.3333 16.381H26.6667C26.1147 16.381 25.6667 15.933 25.6667 15.381C25.6667 14.829 26.1147 14.381 26.6667 14.381H33.3333C33.8853 14.381 34.3333 14.829 34.3333 15.381C34.3333 15.933 33.8853 16.381 33.3333 16.381Z" fill="#0C8543"/>
<path fill-rule="evenodd" clip-rule="evenodd" d="M2.66667 0.714355H57.3333C58.8 0.714355 60 1.91435 60 3.38102V8.04769C60 9.51436 58.8 10.7144 57.3333 10.7144H56.6667V42.7144C56.6667 44.181 55.4667 45.381 54 45.381H6C4.53333 45.381 3.33333 44.181 3.33333 42.7144V10.7144H2.66667C1.2 10.7144 0 9.51436 0 8.04769V3.38102C0 1.91435 1.2 0.714355 2.66667 0.714355ZM41 27.0477V23.7144H19V27.0477H41ZM41 29.0477H19V32.381H41V29.0477ZM41 34.381H19V42.0477H41V34.381ZM52.4433 32.361L53.3333 33.251V10.7144H6.66667V42.0477H17V23.7144H14C13.448 23.7144 13 23.2664 13 22.7144C13 22.1624 13.448 21.7144 14 21.7144H46C46.552 21.7144 47 22.1624 47 22.7144C47 23.2664 46.552 23.7144 46 23.7144H43V28.041L43.0007 28.0477L43 28.0544V42.0484H46.8313L45.8233 41.0397C45.628 40.8444 45.628 40.527 45.8233 40.3324C46.0187 40.137 46.3353 40.137 46.5307 40.3324L48.2453 42.0477H51.46L48.152 38.739C47.9567 38.5437 47.9567 38.227 48.152 38.0317C48.3473 37.8364 48.664 37.8364 48.8593 38.0317L52.8747 42.0477H53.3333V39.2924L49.2933 35.2537C49.098 35.0584 49.098 34.7417 49.2933 34.5464C49.4887 34.351 49.8053 34.351 50.0007 34.5464L53.3333 37.8784V34.665L51.736 33.0684C51.5407 32.873 51.5407 32.5564 51.736 32.361C51.9313 32.1657 52.248 32.1657 52.4433 32.361ZM3.33333 7.38102H56.6667V4.04769H3.33333V7.38102Z" fill="#0C8543"/>
</svg>
