<svg width="60" height="40" viewBox="0 0 60 40" fill="none" xmlns="http://www.w3.org/2000/svg">
<path d="M60 10.7774C59.9987 9.77079 59.6989 8.74008 59.0168 7.87506L54.3686 2.01045C53.9126 1.43508 53.3296 1.00388 52.7 0.717499C52.0691 0.431771 51.3871 0.286297 50.6964 0.285645C49.8787 0.285645 49.0371 0.493092 48.2879 0.952997L43.7554 3.7333C43.5905 3.83572 43.3292 3.94467 43.0228 4.01903C42.7163 4.09405 42.366 4.1358 42.0243 4.13515C41.4931 4.13907 40.9879 4.02686 40.7166 3.89182L36.2785 1.773C35.4449 1.37898 34.5541 1.22894 33.6699 1.22633C33.0337 1.22633 32.3989 1.30787 31.7833 1.47488C31.169 1.64318 30.5734 1.89499 30.0289 2.27139L29.8368 2.40447C29.4499 2.21529 28.9633 1.97588 28.4281 1.71298C27.4336 1.23546 26.3427 1.06455 25.2405 1.05737C24.2446 1.06194 23.2501 1.20676 22.3241 1.59034L19.3013 2.86177C18.9284 3.02485 18.2157 3.15859 17.5111 3.15337C16.8071 3.15859 16.0944 3.02485 15.7221 2.86177L12.6967 1.58969C12.0472 1.31766 11.3711 1.20546 10.7077 1.20546C9.94583 1.20611 9.19662 1.35354 8.49261 1.6334C7.79127 1.91651 7.12914 2.33402 6.58934 2.92765L1.08028 9.0108C0.359658 9.80536 -0.00131929 10.81 1.02809e-05 11.7957C-0.00264885 12.9712 0.510563 14.1546 1.49311 14.9811L6.07413 18.8326L4.13297 20.8803L4.13563 20.8822C3.34985 21.6977 2.95564 22.7519 2.95696 23.7904C2.95564 24.902 3.40636 26.0293 4.29451 26.8597L4.78911 27.3229C5.14344 27.6549 5.55028 27.9008 5.97309 28.0907C5.82883 28.5225 5.74174 28.9687 5.74174 29.4143C5.74041 30.5265 6.18981 31.6545 7.07928 32.4849L7.57388 32.9487C8.40752 33.7289 9.49178 34.1184 10.5548 34.1171C10.8885 34.1177 11.2222 34.0753 11.5506 33.9983C11.7727 34.5078 12.0997 34.984 12.5338 35.3878L13.0298 35.853C13.8634 36.6338 14.9477 37.0226 16.0106 37.0213C16.5804 37.022 17.1547 36.9104 17.6919 36.6886C17.9046 37.0839 18.1812 37.4545 18.5282 37.778L19.0254 38.2432C19.8577 39.0234 20.942 39.4128 22.0063 39.4115C23.1384 39.4128 24.2879 38.9718 25.1341 38.1003L26.8207 36.3651L29.2903 38.5896L29.281 38.5817C30.1094 39.3385 31.1757 39.7155 32.222 39.7142C33.3721 39.7155 34.5381 39.2595 35.3877 38.3639L35.8538 37.8707C36.0851 37.626 36.2692 37.3573 36.4314 37.0781L36.8689 37.4754C37.6972 38.2308 38.7622 38.6052 39.8072 38.6039C40.9599 38.6059 42.126 38.1505 42.9756 37.2536L43.4416 36.7617C43.9089 36.2692 44.2154 35.6879 44.3982 35.0799C44.5305 35.093 44.6615 35.1158 44.7944 35.1158C45.9472 35.1178 47.1132 34.6624 47.9628 33.7648L48.4275 33.2736L48.4288 33.2723C49.1986 32.4595 49.5815 31.4131 49.5802 30.3876C49.5802 30.293 49.5722 30.1991 49.5662 30.1045C50.2815 29.8957 50.953 29.505 51.4954 28.9322L51.9614 28.439C52.7326 27.6249 53.1155 26.5798 53.1142 25.5537C53.1155 24.4754 52.6881 23.3872 51.8544 22.5653L51.3857 22.0401L58.7934 13.9641C59.6257 13.0508 59.9973 11.9033 60 10.7774ZM31.0833 5.53313L31.9482 4.93362C32.109 4.82077 32.3663 4.70009 32.6728 4.61724C32.9806 4.53308 33.3336 4.48677 33.6713 4.48742C34.1426 4.48416 34.58 4.58331 34.8253 4.7053L39.2634 6.82413C40.1423 7.23837 41.0836 7.39233 42.0249 7.39624C42.6299 7.39624 43.2348 7.32774 43.8245 7.18488C44.4115 7.04071 44.9839 6.82478 45.5177 6.49926L50.0502 3.7183C50.2257 3.61066 50.4491 3.54673 50.697 3.54673C50.9051 3.54673 51.1205 3.59305 51.3046 3.6772C51.4888 3.76136 51.6384 3.87813 51.7447 4.01316L56.3929 9.87712C56.5578 10.08 56.6774 10.4153 56.6761 10.7774C56.6787 11.1838 56.5252 11.5726 56.3244 11.7839L55.6231 12.5478L54.5036 11.4506C54.3088 11.2594 53.993 11.2594 53.7982 11.4506C53.6035 11.6417 53.6035 11.9516 53.7982 12.1427L54.9536 13.2765L53.4359 14.9322L51.2402 12.7775C51.0454 12.5863 50.7296 12.5863 50.5348 12.7775C50.34 12.9686 50.34 13.2785 50.5348 13.4696L52.7678 15.6608L51.2488 17.3165L49.4725 15.5728C49.2777 15.3816 48.9619 15.3816 48.7672 15.5728C48.5724 15.7639 48.5724 16.0738 48.7672 16.2649L50.5814 18.0452L49.0996 19.6597L46.2549 17.0653C45.1049 16.019 43.2608 14.5362 41.9897 13.6353L36.8882 10.0298C36.3842 9.67359 35.8325 9.43157 35.2654 9.27174C34.699 9.11322 34.1153 9.03755 33.5297 9.03689C32.5378 9.04081 31.5327 9.24891 30.6252 9.78057L28.7831 10.8726C28.6116 10.9737 28.3989 11.0318 28.1649 11.0318C27.9568 11.0318 27.7401 10.9842 27.5559 10.8967C27.3705 10.81 27.2209 10.6906 27.1158 10.5497L26.7083 10.0108L26.707 10.0095C26.5747 9.83341 26.5122 9.6351 26.5109 9.42243C26.5135 9.10735 26.6538 8.80923 26.9124 8.61939L31.0833 5.53313ZM6.99286 24.992L6.95231 24.9535L6.94965 24.9516L6.94832 24.9509C6.60795 24.6319 6.43777 24.2059 6.43644 23.7702C6.43777 23.3598 6.58735 22.9613 6.89248 22.6462L11.6876 17.7138C12.012 17.3798 12.4461 17.2121 12.8915 17.2108C13.3083 17.2115 13.7158 17.3596 14.0369 17.6577L14.0761 17.6949L14.0788 17.6975C14.4192 18.0158 14.5893 18.4418 14.5907 18.8789C14.5893 19.2892 14.4384 19.6891 14.1333 20.0035L9.34221 24.934C9.01779 25.268 8.58236 25.4363 8.13695 25.4369C7.71947 25.4363 7.31196 25.2895 6.99286 24.992ZM13.2498 29.488L12.2307 30.5363C11.9063 30.871 11.4722 31.0386 11.0268 31.0393C10.6086 31.0386 10.2011 30.8906 9.88134 30.5918L9.37079 30.1149C9.02909 29.7966 8.85891 29.3706 8.85824 28.9335C8.85957 28.5238 9.00915 28.1239 9.31429 27.8095L15.7128 21.2247C16.0372 20.8907 16.4713 20.7237 16.9167 20.7224C17.3349 20.7237 17.7424 20.8705 18.0622 21.1699L18.5727 21.6474C18.9131 21.9664 19.0833 22.3918 19.0846 22.8288C19.0846 23.2385 18.9337 23.6391 18.6286 23.9535L17.6108 25.0005C17.5875 25.0233 17.5603 25.0396 17.537 25.0631L13.3209 29.3993C13.2937 29.4273 13.2757 29.46 13.2498 29.488ZM19.282 31.8032L17.6666 33.4667C17.3422 33.8007 16.9068 33.9683 16.4614 33.9696C16.0445 33.9683 15.6357 33.8209 15.3159 33.5215L14.8187 33.0564C14.477 32.7374 14.3068 32.3114 14.3061 31.8743C14.3075 31.5025 14.4371 31.1417 14.6877 30.8436L19.0567 26.347C19.3724 26.0619 19.7693 25.9125 20.1808 25.9118C20.599 25.9125 21.0065 26.0606 21.3276 26.36L21.8235 26.8245C22.1639 27.1428 22.3341 27.5681 22.3354 28.0052C22.3341 28.4071 22.1885 28.7991 21.8953 29.1096C21.8887 29.1175 19.3206 31.7556 19.3206 31.7556C19.3066 31.7699 19.296 31.7875 19.282 31.8032ZM25.7431 32.751L23.1916 35.3774C22.8672 35.7114 22.4318 35.8791 21.9877 35.8804C21.5696 35.8791 21.162 35.7316 20.841 35.4322L20.8204 35.4126C20.4787 35.093 20.3085 34.667 20.3078 34.2299C20.3091 33.8392 20.4494 33.4602 20.726 33.1536C20.726 33.1536 23.3346 30.4652 23.3412 30.4587C23.663 30.1404 24.0851 29.9786 24.5199 29.9773C24.938 29.9786 25.3455 30.1254 25.6666 30.4248L25.6886 30.4463C26.0289 30.7647 26.1991 31.19 26.2004 31.6264C26.1984 32.0361 26.0482 32.436 25.7431 32.751ZM49.2478 26.4559L49.0258 26.6901C48.7014 27.0326 48.2599 27.2061 47.8066 27.2074C47.4236 27.2061 47.0507 27.0769 46.7429 26.8238L40.3962 21.0492C39.994 20.6813 39.3625 20.7041 38.9875 21.1001C38.6126 21.4954 38.6359 22.1152 39.0394 22.4824L45.9026 28.728C46.2516 29.0477 46.4285 29.4808 46.4298 29.9244C46.4285 30.3276 46.2842 30.7209 45.9884 31.0341L45.5104 31.539C45.1847 31.8821 44.7432 32.0556 44.2912 32.057C43.881 32.0556 43.4795 31.9134 43.1617 31.6238L36.2998 25.3691C35.8963 25.0012 35.2648 25.024 34.8898 25.42C34.5155 25.8159 34.5395 26.4357 34.943 26.8023L40.9546 32.282C41.2923 32.5997 41.4652 33.0237 41.4665 33.4602C41.4652 33.862 41.3196 34.256 41.0251 34.5678L40.5445 35.0747C40.2187 35.4185 39.7773 35.592 39.3226 35.5933C38.9124 35.5927 38.5109 35.4505 38.1918 35.1615L31.9255 29.4593C31.522 29.092 30.8905 29.1155 30.5169 29.5115C30.1433 29.9075 30.1665 30.5272 30.5701 30.8945L33.7577 33.7981C34.1107 34.1197 34.2889 34.5548 34.2889 34.9977C34.2889 35.3957 34.1459 35.7819 33.8567 36.0891C33.5363 36.427 33.1009 36.5973 32.6515 36.5986C32.24 36.5973 31.8358 36.4544 31.5154 36.1628L27.9382 32.9428C28.1084 32.5188 28.1941 32.07 28.1941 31.6244C28.1941 30.6818 27.8152 29.73 27.0647 29.0281L27.0593 29.0229L27.0374 29.0027L27.0427 29.0079C26.3374 28.347 25.422 28.0176 24.5199 28.0189C24.456 28.0189 24.3916 28.0339 24.3277 28.0372C24.3277 28.0261 24.3304 28.015 24.3304 28.0033C24.3317 27.0606 23.9528 26.1088 23.2009 25.4069L22.705 24.9418C22.1765 24.448 21.5323 24.1401 20.8629 24.0161C21.0005 23.6306 21.0783 23.2287 21.0783 22.8282C21.0796 21.8855 20.7007 20.9331 19.9488 20.2305L19.4383 19.753C18.7329 19.0928 17.8189 18.7641 16.9167 18.7654C16.8024 18.7654 16.6894 18.7875 16.5764 18.7986C16.5558 17.8834 16.1842 16.9662 15.4556 16.2838L15.4137 16.2434C14.7083 15.5826 13.7929 15.2538 12.8908 15.2544C11.9302 15.2538 10.9603 15.6256 10.2437 16.3634L9.34619 17.2871L3.65632 12.5028C3.43162 12.313 3.32658 12.0618 3.32393 11.7944C3.32525 11.5713 3.39905 11.3612 3.56391 11.1766L9.0743 5.09345C9.21191 4.9395 9.45057 4.77054 9.74972 4.65181C10.0455 4.53178 10.3966 4.46459 10.7077 4.46589C10.9816 4.46459 11.2215 4.51547 11.3877 4.58658L14.4132 5.85865C15.3844 6.25985 16.4441 6.40924 17.5111 6.41445C18.578 6.40924 19.6377 6.2605 20.6103 5.85865L23.6344 4.58723C23.986 4.43327 24.6163 4.31324 25.2405 4.31781C25.87 4.31128 26.4923 4.44045 26.836 4.58723L24.9108 6.01065C23.78 6.84892 23.185 8.1347 23.1863 9.41982C23.1863 10.2959 23.4642 11.1942 24.0379 11.9522L24.0366 11.9509L24.4441 12.4904C24.8975 13.0886 25.4838 13.5394 26.1227 13.8382C26.7628 14.137 27.4575 14.2903 28.1635 14.2909C28.9553 14.2909 29.7683 14.0939 30.4996 13.662L32.3417 12.5694C32.5857 12.4193 33.0444 12.2921 33.5283 12.296C33.8129 12.2954 34.1007 12.3352 34.35 12.4056C34.6006 12.4748 34.8074 12.5759 34.945 12.6737L40.0465 16.2793C41.1487 17.0562 42.9975 18.5436 43.9927 19.4516L45.7185 21.0251L45.7264 21.0173L49.1594 24.1485C49.5097 24.4675 49.6866 24.9007 49.6879 25.3449C49.6879 25.7494 49.5423 26.1428 49.2478 26.4559Z" fill="#0C8543"/>
</svg>
